<svg height="512" viewBox="0 0 53 60" width="512" xmlns="http://www.w3.org/2000/svg"><path id="Shape" d="m1 0c-.55228475 0-1 .44771525-1 1v23.5c0 1.9329966 1.56700338 3.5 3.5 3.5h13c1.8518286.0031918 3.384321-1.4393605 3.493-3.288.0292793-.9828937-.3442165-1.9350926-1.0339434-2.6359594-.6897269-.7008667-1.6358199-1.0895695-2.6190566-1.0760406h-7.84c-.39849437.0022408-.78130294-.155132-1.063-.437-.4297015-.4577614-.53469983-1.132197-.26449372-1.6989223.27020611-.5667252.8603122-.9097455 1.48649372-.8640777h7.841c1.8518286.0031918 3.384321-1.4393605 3.493-3.288.0292793-.9828937-.3442165-1.9350926-1.0339434-2.6359594-.6897269-.7008667-1.6358199-1.0895695-2.6190566-1.0760406h-1.84c-.5863742.0118571-1.1230029-.3280813-1.3628178-.8633046-.239815-.53522339-.1363268-1.16197587.2628178-1.5916954.3274865-.34677443.783032-.54381591 1.26-.545h9.34v28.93c-.0003068.2682872-.1084043.525199-.3.713l-11.53 11.53c-1.1302236 1.1118126-1.4859596 2.7917644-.9033975 4.2662656.5825621 1.4745013 1.9904668 2.4576547 3.5753975 2.4967344 1.1685033.0327132 2.2984949-.4193558 3.122-1.249l8.33-8.33c.287396-.2817049.715656-.3636839 1.086772-.2080335.3711159.1556504.6127683.5185985.613228.9210335v.469c-1.2639574 1.1393133-1.9880927 2.7593572-1.994 4.461v2c0 3.3137085 2.6862915 6 6 6s6-2.6862915 6-6v-2c.0088847-1.7051974-.7204316-3.3308434-2-4.458 0-.461-.084-1.109.62-1.4.3706473-.1599304.8015522-.0743861 1.083.215l8.33 8.33c.8279939.8228393 1.9549401 1.27369 3.122 1.249 1.5854105-.038143 2.9941223-1.0212334 3.5768522-2.4961596.58273-1.4749262.2263619-3.1553837-.9048522-4.2668404l-11.527-11.53c-.1915957-.187801-.2996932-.4447128-.3-.713v-32.43c.0010999-1.90877317-1.2055148-3.60930768-3.0075476-4.23866765-1.8020328-.62935996-3.8049824-.04976575-4.9924524 1.44466765-1.18747-1.4944334-3.1904196-2.07402761-4.9924524-1.44466765-1.8020328.62935997-3.0086475 2.32989448-3.0075476 4.23866765v1.5h-9.34c-.9828791-.01350786-1.9286515.37492332-2.6183161 1.07534923-.6896647.7004259-1.063407 1.65209861-1.0346839 2.63465077.1071721 1.8496567 1.6402446 3.2936328 3.493 3.29 1.86 0 2.453-.14 3.1.545.3991446.4297195.5026328 1.056472.2628178 1.5916954-.2398149.5352233-.7764436.8751617-1.3628178.8633046h-7.841c-.98306463-.0129572-1.92882055.3759271-2.61842139 1.0766657-.68960083.7007387-1.06328356 1.6526034-1.03457861 2.6353343.10821201 1.849254 1.6415874 3.2922243 3.494 3.288h7.84c.4762724.0017317.9309916.1987285 1.258.545.3988699.4294558.5024825 1.0557117.263186 1.5907506-.2392964.535039-.775176.8752816-1.361186.8642494h-13c-.82842712 0-1.5-.6715729-1.5-1.5v-23.5c0-.55228475-.44771525-1-1-1zm25 22h12v2h-12zm12-2h-5v-12h5zm-7 0h-5v-12h5zm5 34c0 2.209139-1.790861 4-4 4s-4-1.790861-4-4v-2c0-2.209139 1.790861-4 4-4s4 1.790861 4 4zm14.413-3.413c.7514879.7498586.7861683 1.9562077.079 2.748-.4119404.3957157-.9642496.6115113-1.5353456.5998831-.5710959-.0116282-1.1141632-.2497271-1.5096544-.6618831l-8.33-8.33c-.7682456-.7675724-1.8913325-1.0600292-2.9363766-.7646455-1.0450441.2953836-1.8488598 1.132483-2.1016234 2.1886455-1.3435698-.4850084-2.8144302-.4850084-4.158 0-.2527636-1.0561625-1.0565793-1.8932619-2.1016234-2.1886455-1.0450441-.2953837-2.168131-.0029269-2.9363766.7646455l-8.33 8.33c-.4798077.5298249-1.2058265.7634289-1.9045721.6128157-.6987457-.1506132-1.2640621-.6625619-1.483-1.343-.218938-.6804381-.0582356-1.4259908.4215721-1.9558157l11.53-11.53c.5668111-.5624696.8848092-1.3284741.883-2.127v-10.93h12v10.93c-.0018092.7985259.3161889 1.5645304.883 2.127zm-14.913-48.587c.6630412 0 1.298926.2633921 1.767767.73223305.4688409.46884094.732233 1.10472573.732233 1.76776695v1.5h-5v-1.5c0-1.38071187 1.1192881-2.5 2.5-2.5zm-9.5 2.5c0-1.38071187 1.1192881-2.5 2.5-2.5s2.5 1.11928813 2.5 2.5v1.5h-5z"/></svg>