<?xml version="1.0" encoding="iso-8859-1"?>
<!-- Generator: Adobe Illustrator 16.0.0, SVG Export Plug-In . SVG Version: 6.00 Build 0)  -->
<!DOCTYPE svg PUBLIC "-//W3C//DTD SVG 1.1//EN" "http://www.w3.org/Graphics/SVG/1.1/DTD/svg11.dtd">
<svg version="1.1" id="Capa_1" xmlns="http://www.w3.org/2000/svg" xmlns:xlink="http://www.w3.org/1999/xlink" x="0px" y="0px"
	 width="556.748px" height="556.748px" viewBox="0 0 556.748 556.748" style="enable-background:new 0 0 556.748 556.748;"
	 xml:space="preserve">
<g>
	<g>
		<path d="M479.883,159.436c-7.095-13.923-24.9-24.815-40.525-24.815h-12.087c-11.657,0-28.19-7.239-36.108-15.816L289.044,8.329
			C284.091,2.955,277.904,0,271.65,0c-8.233,0-15.472,4.896-19.842,13.406l-94.726,184.547c-3.156,6.148-9.448,9.974-16.409,9.974
			c-2.859,0-5.604-0.641-8.167-1.913l-33.287-16.648c-4.236-2.123-9.008-3.251-13.78-3.251c-11.484,0-22.003,6.177-27.454,16.113
			l-38.938,70.916c-2.582,4.714-2.754,9.62-0.478,13.464c2.285,3.863,6.674,6.071,12.048,6.071h150.313l34.808-34.884
			c9.496-10.844,22.749-12.087,27.97-12.087c0.976,0,1.712,0.048,2.324,0.086c-0.048-0.842-0.249-1.635-0.249-2.486
			c0-25.188,20.483-45.651,45.661-45.651c25.179,0,45.661,20.473,45.661,45.642c0,24.222-19.067,43.911-42.974,45.327l2.592,4.063
			h229.223c5.345,0,9.744-2.189,12.096-6.034c2.343-3.824,2.305-8.769-0.124-13.502L479.883,159.436z M146.888,223.036V233
			c0,6.665-5.374,12.708-11.991,13.493l-1.673,0.201c-6.627,0.774-15.042,4.791-18.791,8.969c-3.758,4.169-11.58,5.001-17.461,1.855
			l-1.339-0.708c-5.881-3.136-16.075-5.689-22.749-5.689c-6.675,0-10.72-5.231-9.027-11.705l8.74-33.498
			c0.296-1.147,0.43-2.18,0.498-3.136c3.414-2.84,7.698-4.59,12.335-4.59c2.955,0,5.766,0.66,8.376,1.979l33.287,16.629
			c4.255,2.142,8.826,3.204,13.569,3.204c2.391,0,4.714-0.335,6.971-0.861C147.185,220.425,146.888,221.726,146.888,223.036z
			 M400.524,146.449l-26.097,73.65c-2.209,6.292-7.727,7.44-12.287,2.563l-3.118-3.318c-4.552-4.886-10.948-13.512-14.276-19.297
			l-4.571-7.937c-3.327-5.785-8.721-8.109-12.067-5.192c-3.338,2.936-7.736,0.153-9.821-6.177l-7.535-22.931
			c-2.084-6.35-7.19-7.287-11.398-2.113l-13.444,16.553c-4.208,5.183-7.622,3.978-7.622-2.697v-25.675
			c0-6.674-4.016-8.472-8.988-4.006l-12.23,11.016c-4.953,4.465-8.147,2.744-7.124-3.844l6.856-44.074
			c1.023-6.598-2.247-8.425-7.306-4.083l-2.812,2.391c-5.059,4.341-8.195,2.553-7-4.026l9.505-52.278l13.378-26.067
			c4.026-7.851,11.685-8.845,17.614-2.419L382.298,126.99c5.24,5.67,13.005,10.672,21.354,14.239
			C402.408,142.682,401.279,144.336,400.524,146.449z M487.629,214.162c-6.35-2.008-11.522,1.052-11.522,6.847
			c0,5.804-3.166,6.101-7.048,0.669l-0.994-1.349c-3.893-5.422-9.085-9.801-11.59-9.801c-2.496,0-6.216-4.447-8.301-9.907
			c-2.084-5.46-6.139-7.879-9.056-5.374c-2.936,2.496-5.288-0.899-5.288-7.555v-4.533c0-6.674-4.743-12.087-10.586-12.087
			c-5.833,0-9.409-5.297-7.984-11.8c0,0,0.956-4.37,2.123-9.725c0.296-1.368,0.354-2.697,0.21-3.959
			c3.348,0.669,6.617,1.109,9.688,1.109h12.087c11.102,0,24.738,8.338,29.777,18.216l26.393,51.714L487.629,214.162z"/>
		<path d="M293.013,276.519c17.279,0,31.317-13.971,31.317-31.26c0-17.251-14.047-31.289-31.317-31.289
			c-17.26,0-31.298,14.066-31.298,31.289C261.734,262.548,275.753,276.519,293.013,276.519z"/>
		<path d="M227.481,269.892l-66.191,66.326c-4.255,4.608-6.742,10.776-6.742,17.509c0,9.792,5.47,18.437,13.502,22.901
			l67.406,37.476v70.485c0,9.945,8.062,18.102,18.025,18.102c9.993,0,18.063-8.128,18.063-18.102v-88.08
			c0,0,2.391-14.019-13.598-21.697l-38.881-20.482l41.951-41.54l20.32,31.843c3.567,5.643,8.482,7.899,13.034,7.804h60.454
			c18.752,0,18.752-24.48,0-24.48l-52.221,0.115l-34.349-53.875c0,0-7.287-12.106-21.124-12.106
			C247.123,262.108,235.628,260.616,227.481,269.892z"/>
		<path d="M376.063,386.086c-47.114,0-85.364,38.135-85.364,85.316c0,47.191,38.269,85.346,85.364,85.346
			c47.047,0,85.288-38.174,85.288-85.346C461.352,424.202,423.11,386.086,376.063,386.086z"/>
		<path d="M45.774,471.402c0,47.172,38.26,85.346,85.269,85.346c47.191,0,85.383-38.174,85.383-85.346
			c0-47.182-38.221-85.316-85.383-85.316C84.034,386.086,45.774,424.25,45.774,471.402z"/>
	</g>
</g>
<g>
</g>
<g>
</g>
<g>
</g>
<g>
</g>
<g>
</g>
<g>
</g>
<g>
</g>
<g>
</g>
<g>
</g>
<g>
</g>
<g>
</g>
<g>
</g>
<g>
</g>
<g>
</g>
<g>
</g>
</svg>
